<?xml version="1.0" standalone="no"?>
<!DOCTYPE svg PUBLIC "-//W3C//DTD SVG 20010904//EN"
 "http://www.w3.org/TR/2001/REC-SVG-20010904/DTD/svg10.dtd">
<svg version="1.0" xmlns="http://www.w3.org/2000/svg"
 width="16.000000pt" height="16.000000pt" viewBox="0 0 16.000000 16.000000"
 preserveAspectRatio="xMidYMid meet">
<metadata>
Created by potrace 1.11, written by Peter Selinger 2001-2013
</metadata>
<g transform="translate(0.000000,16.000000) scale(0.010191,-0.010191)"
fill="#000000" stroke="none">
<path d="M0 785 l0 -785 785 0 785 0 0 785 0 785 -785 0 -785 0 0 -785z m850
610 c38 -19 60 -63 60 -115 0 -83 -49 -130 -135 -130 -25 0 -59 7 -75 15 -79
41 -80 187 -2 229 35 20 115 20 152 1z m432 -312 c22 -20 23 -70 1 -95 -14
-16 -34 -18 -167 -18 -190 0 -196 -3 -196 -95 0 -36 23 -193 51 -351 47 -266
49 -287 34 -310 -22 -34 -61 -41 -93 -17 -25 19 -30 34 -60 209 -36 206 -47
239 -77 239 -30 0 -41 -33 -77 -239 -30 -175 -35 -190 -60 -209 -32 -24 -71
-17 -93 17 -15 22 -12 45 35 310 27 158 50 316 50 351 0 92 -6 95 -194 95
-125 0 -152 3 -168 17 -22 20 -23 70 -1 95 15 17 44 18 506 18 442 0 492 -2
509 -17z"/>
</g>
</svg>
